<svg width="24.218750" height="23.859619" viewBox="0 0 24.2188 23.8596" fill="none" xmlns="http://www.w3.org/2000/svg" xmlns:xlink="http://www.w3.org/1999/xlink">
	<desc>
			Created with Pixso.
	</desc>
	<defs/>
	<path id="Vector" d="M24.21 12C24.21 5.37 18.79 0 12.1 0C5.41 0 0 5.37 0 12C0 17.99 4.42 22.95 10.21 23.85L10.21 15.47L7.14 15.47L7.14 12L10.21 12L10.21 9.35C10.21 6.35 12.02 4.68 14.79 4.68C16.11 4.68 17.5 4.92 17.5 4.92L17.5 7.87L15.97 7.87C14.47 7.87 14 8.8 14 9.74L14 12L17.35 12L16.82 15.47L14 15.47L14 23.85C19.79 22.95 24.21 17.99 24.21 12Z" fill="#FAFAFA" fill-opacity="1.000000" fill-rule="nonzero"/>
</svg>
