<svg width="24.999878" height="20.124756" viewBox="0 0 24.9999 20.1248" fill="none" xmlns="http://www.w3.org/2000/svg" xmlns:xlink="http://www.w3.org/1999/xlink">
	<desc>
			Created with Pixso.
	</desc>
	<defs/>
	<path id="Vector" d="M22.43 5.01C22.44 5.23 22.44 5.45 22.44 5.67C22.44 12.38 17.29 20.12 7.86 20.12C4.96 20.12 2.26 19.29 0 17.84C0.41 17.89 0.8 17.9 1.23 17.9C3.63 17.9 5.83 17.1 7.59 15.73C5.34 15.69 3.45 14.22 2.8 12.21C3.12 12.26 3.44 12.29 3.77 12.29C4.23 12.29 4.69 12.23 5.12 12.12C2.77 11.65 1.01 9.6 1.01 7.13L1.01 7.07C1.69 7.45 2.49 7.68 3.33 7.71C1.95 6.8 1.04 5.25 1.04 3.49C1.04 2.54 1.3 1.68 1.74 0.92C4.26 4 8.05 6.02 12.3 6.24C12.23 5.86 12.18 5.47 12.18 5.07C12.18 2.27 14.46 0 17.3 0C18.78 0 20.11 0.61 21.05 1.6C22.2 1.38 23.31 0.95 24.3 0.37C23.92 1.55 23.11 2.54 22.04 3.17C23.08 3.06 24.07 2.78 24.99 2.38C24.3 3.39 23.42 4.29 22.43 5.01Z" fill="#FAFAFA" fill-opacity="1.000000" fill-rule="nonzero"/>
</svg>
