<svg width="21.887207" height="21.688477" viewBox="0 0 21.8872 21.6885" fill="none" xmlns="http://www.w3.org/2000/svg" xmlns:xlink="http://www.w3.org/1999/xlink">
	<desc>
			Created with Pixso.
	</desc>
	<defs/>
	<path id="Vector" d="M10.94 5.28C7.84 5.28 5.33 7.76 5.33 10.84C5.33 13.92 7.84 16.4 10.94 16.4C14.05 16.4 16.55 13.92 16.55 10.84C16.55 7.76 14.05 5.28 10.94 5.28ZM10.94 14.45C8.93 14.45 7.29 12.83 7.29 10.84C7.29 8.85 8.93 7.22 10.94 7.22C12.95 7.22 14.59 8.85 14.59 10.84C14.59 12.83 12.95 14.45 10.94 14.45ZM18.09 5.05C18.09 5.77 17.5 6.35 16.78 6.35C16.05 6.35 15.47 5.77 15.47 5.05C15.47 4.33 16.06 3.75 16.78 3.75C17.5 3.75 18.09 4.33 18.09 5.05ZM21.81 6.37C21.72 4.63 21.32 3.09 20.04 1.82C18.76 0.56 17.21 0.16 15.45 0.07C13.65 -0.03 8.23 -0.03 6.42 0.07C4.68 0.15 3.12 0.55 1.84 1.82C0.56 3.09 0.16 4.63 0.07 6.36C-0.03 8.15 -0.03 13.52 0.07 15.31C0.15 17.05 0.56 18.59 1.84 19.86C3.12 21.12 4.67 21.52 6.42 21.61C8.23 21.71 13.65 21.71 15.45 21.61C17.21 21.53 18.76 21.13 20.04 19.86C21.32 18.59 21.72 17.05 21.81 15.31C21.91 13.52 21.91 8.16 21.81 6.37ZM19.47 17.23C19.09 18.18 18.35 18.91 17.39 19.29C15.95 19.86 12.53 19.73 10.94 19.73C9.35 19.73 5.93 19.86 4.49 19.29C3.53 18.92 2.8 18.19 2.41 17.23C1.84 15.8 1.97 12.42 1.97 10.84C1.97 9.26 1.84 5.87 2.41 4.45C2.79 3.5 3.53 2.77 4.49 2.38C5.93 1.82 9.35 1.95 10.94 1.95C12.53 1.95 15.96 1.82 17.39 2.38C18.35 2.76 19.09 3.49 19.47 4.45C20.04 5.87 19.91 9.26 19.91 10.84C19.91 12.42 20.04 15.81 19.47 17.23Z" fill="#FAFAFA" fill-opacity="1.000000" fill-rule="nonzero"/>
</svg>
